<svg id="Capa_1" enable-background="new 0 0 512 512" height="512" viewBox="0 0 512 512" width="512" xmlns="http://www.w3.org/2000/svg"><g><g><g><path d="m332.321 143.897h-73.981v-27.353c0-8.284 6.716-15 15-15h43.981c8.284 0 15 6.716 15 15z" fill="#dd636e"/></g><g><path d="m319.074 101.66v9.853c0 4.343-3.521 7.864-7.864 7.864h-52.87v24.521h73.981v-27.321c0-7.698-5.788-14.033-13.247-14.917z" fill="#da4a54"/></g><g><path d="m295.331 101.544h-21.959c-8.302 0-15.032 6.73-15.032 15.032v27.321h36.991z" fill="#90d8f9"/></g><g><path d="m258.34 119.377h36.991v24.521h-36.991z" fill="#75cef9"/></g></g><g><path d="m494.105 136.03h-269.085c-25.095 0-49.145 10.044-66.787 27.89l-68.298 69.091c-2.596 2.626-5.857 4.497-9.434 5.414l-20.851 5.342c-24.167 6.192-43.376 24.503-50.717 48.346-.598 1.957-1.498 4.414-1.417 6.477v55.108c0 5.732 4.647 10.379 10.379 10.379h112.665 204.512 159.032c5.732 0 10.379-4.647 10.379-10.379v-207.289c.001-5.732-4.646-10.379-10.378-10.379z" fill="#e7ecf6"/></g><g><path d="m494.105 136.03h-15.217v192.072c0 5.732-4.647 10.379-10.379 10.379h-159.032-204.513-97.448v15.217c0 5.732 4.647 10.379 10.379 10.379h112.665 204.512 159.032c5.732 0 10.379-4.647 10.379-10.379v-207.289c.001-5.732-4.646-10.379-10.378-10.379z" fill="#d8e2f1"/></g><g><path d="m504.484 304.296v-48.763h-469.611c-12.15 8.97-21.357 21.697-25.94 36.58-.598 1.957-1.498 4.414-1.417 6.477v5.706z" fill="#dd636e"/></g><g><path d="m225.02 136.03c-25.095 0-49.145 10.044-66.787 27.891l-57.961 58.634h350.218c5.535 0 10.021-4.487 10.021-10.021v-76.504z" fill="#90d8f9"/></g><g><path d="m434.672 136.03v2.45c0 32.163-26.073 58.236-58.236 58.236h-250.622l-25.542 25.839h350.218c5.535 0 10.021-4.487 10.021-10.021v-76.504z" fill="#75cef9"/></g><g><path d="m34.356 324.305c6.766 0 13.024-3.591 16.439-9.433l14.461-24.742c1.952-3.34-.457-7.539-4.326-7.539h-48.295c-1.445 3.059-2.69 6.236-3.702 9.522-.598 1.957-1.498 4.414-1.417 6.477v25.714h26.84z" fill="#f6e266"/></g><g><path d="m60.929 282.591h-9.408l-9.899 16.936c-3.414 5.842-9.672 9.433-16.439 9.433h-17.667v15.345h26.839c6.766 0 13.024-3.591 16.439-9.433l14.461-24.742c1.952-3.34-.457-7.539-4.326-7.539z" fill="#f1d333"/></g><g><path d="m478.888 255.534h25.596v48.763h-25.596z" fill="#da4a54"/></g><g><circle cx="293.642" cy="290.107" fill="#da4a54" r="47.384"/></g><g><g><circle cx="136.371" cy="362.136" fill="#4a80aa" r="48.319"/></g><g><path d="m162.317 321.382c4.783 7.497 7.566 16.394 7.566 25.946 0 26.686-21.633 48.319-48.319 48.319-9.552 0-18.449-2.783-25.946-7.566 8.58 13.448 23.619 22.374 40.753 22.374 26.686 0 48.319-21.633 48.319-48.319 0-17.134-8.926-32.174-22.373-40.754z" fill="#407093"/></g><g><circle cx="136.371" cy="362.136" fill="#e7ecf6" r="14.808"/></g><g><path d="m141.529 348.27c.599 1.608.942 3.341.942 5.158 0 8.178-6.63 14.808-14.808 14.808-1.817 0-3.549-.343-5.158-.942 2.096 5.631 7.505 9.65 13.866 9.65 8.178 0 14.808-6.63 14.808-14.808-.001-6.362-4.019-11.77-9.65-13.866z" fill="#d8e2f1"/></g></g><g><g><circle cx="420.834" cy="362.136" fill="#4a80aa" r="48.319"/></g><g><path d="m446.78 321.382c4.783 7.497 7.566 16.394 7.566 25.946 0 26.686-21.633 48.319-48.319 48.319-9.552 0-18.449-2.783-25.946-7.566 8.58 13.448 23.619 22.374 40.753 22.374 26.686 0 48.319-21.633 48.319-48.319.001-17.134-8.926-32.174-22.373-40.754z" fill="#407093"/></g><g><circle cx="420.834" cy="362.136" fill="#e7ecf6" r="14.808"/></g><g><path d="m425.992 348.27c.599 1.608.942 3.341.942 5.158 0 8.178-6.63 14.808-14.808 14.808-1.817 0-3.549-.343-5.158-.942 2.096 5.631 7.505 9.65 13.866 9.65 8.178 0 14.808-6.63 14.808-14.808 0-6.362-4.019-11.77-9.65-13.866z" fill="#d8e2f1"/></g></g><g><path d="m494.105 128.514h-154.268v-11.937c0-12.433-10.115-22.548-22.548-22.548h-43.917c-12.433 0-22.548 10.115-22.548 22.548v11.937h-25.804c-26.917 0-53.208 10.979-72.132 30.123l-57.961 58.634c-.004.004-.007.008-.01.011l-10.327 10.447c-1.638 1.657-3.697 2.838-5.954 3.415l-20.851 5.342c-22.747 5.828-41.775 21.729-51.812 42.657-2.721 6.203-5.709 12.693-5.973 19.564v54.991c0 9.868 8.028 17.895 17.895 17.895h63.448c1.946 11.487 7.415 22.04 15.905 30.378 3.121 3.947 8.996 5.413 12.622 1.263 3.466-3.827 1.823-9.197-2.086-11.982-7.878-7.736-12.217-18.076-12.217-29.116 0-22.499 18.304-40.803 40.803-40.803s40.803 18.304 40.803 40.803c0 21.998-17.882 40.297-39.862 40.793-4.15.094-7.438 3.534-7.345 7.683.092 4.093 3.438 7.347 7.511 7.347.057 0 .115-.001.173-.002 14.646-.33 28.361-6.283 38.621-16.763 8.036-8.208 13.233-18.485 15.123-29.6h174.422c4.508 26.297 27.455 46.378 55.018 46.378s50.51-20.08 55.018-46.378h18.252c9.868 0 17.895-8.028 17.895-17.895v-207.29c.001-9.867-8.027-17.895-17.894-17.895zm-150.642 15.032v71.493h-100.24v-71.493zm15.032 0h94.5v68.987c0 1.382-1.124 2.505-2.505 2.505h-91.995zm-33.69-26.969v11.937h-21.959v-19.453h14.443c4.145 0 7.516 3.371 7.516 7.516zm-58.949 0c0-4.145 3.371-7.516 7.516-7.516h14.443v19.453h-21.959zm-183.49 129.129c4.895-1.254 9.361-3.816 12.914-7.41l68.298-69.092c3.022-3.057 6.265-5.87 9.691-8.423 14.845-11.061 33.122-17.235 51.75-17.235h3.171v71.493h-78.792c-4.151 0-7.516 3.365-7.516 7.516s3.365 7.516 7.516 7.516h301.092c9.67 0 17.537-7.867 17.537-17.537v-68.987h26.078c1.579 0 2.863 1.285 2.863 2.863v101.608h-99.512c-4.151 0-7.516 3.365-7.516 7.516s3.365 7.516 7.516 7.516h99.512v33.731h-148.846c.267-2.189.42-4.413.42-6.673 0-9.835-2.612-19.065-7.16-27.057h19.183c4.151 0 7.516-3.365 7.516-7.516s-3.365-7.516-7.516-7.516h-31.661c-.02 0-.039.003-.059.003-9.538-7.991-21.816-12.813-35.203-12.813-13.386 0-25.662 4.821-35.199 12.81h-185.098zm-67.334 52.884c.359-2.821 1.621-5.793 2.554-8.483h38.978l-12.259 20.973c-2.058 3.521-5.87 5.708-9.949 5.708h-19.324zm56.762-17.223c-2.227-3.881-6.39-6.292-10.865-6.292h-35.029c3.378-4.544 7.337-8.633 11.767-12.147.426.075 208.236.121 208.236.121-4.548 7.992-7.16 17.223-7.16 27.057 0 2.26.153 4.484.42 6.673h-169.089l1.67-2.858c2.258-3.862 2.277-8.673.05-12.554zm181.981 8.74c0-21.983 17.885-39.868 39.868-39.868s39.868 17.885 39.868 39.868c.12 4.737-1 8.97-2.297 13.321-5.495 15.451-20.258 26.547-37.571 26.547-21.984 0-39.868-17.885-39.868-39.868zm-172.96 66.455h-62.92c-1.579 0-2.864-1.285-2.864-2.863v-21.878h19.324c9.399 0 18.185-5.041 22.927-13.156l4.005-6.852h50.903c-17.121 8.26-29.409 25.007-31.375 44.749zm79.736-44.75h82.674c8.43 19.506 27.852 33.195 50.417 33.195s41.987-13.688 50.417-33.195h52.595c-17.123 8.26-29.411 25.008-31.377 44.749h-173.35c-1.966-19.741-14.254-36.488-31.376-44.749zm260.283 91.127c-22.499 0-40.803-18.304-40.803-40.803s18.304-40.803 40.803-40.803 40.803 18.304 40.803 40.803-18.304 40.803-40.803 40.803zm73.271-46.377h-17.715c-1.966-19.741-14.254-36.489-31.377-44.749h51.954v41.886c.001 1.578-1.283 2.863-2.862 2.863z"/><path d="m158.694 362.136c0-12.309-10.014-22.324-22.323-22.324s-22.324 10.014-22.324 22.324c0 12.308 10.014 22.323 22.324 22.323 12.309 0 22.323-10.015 22.323-22.323zm-29.615 0c0-4.02 3.271-7.292 7.292-7.292 4.02 0 7.291 3.272 7.291 7.292s-3.271 7.291-7.291 7.291c-4.021 0-7.292-3.271-7.292-7.291z"/><path d="m420.834 339.812c-12.309 0-22.324 10.014-22.324 22.324 0 12.308 10.014 22.323 22.324 22.323 12.309 0 22.323-10.014 22.323-22.323.001-12.309-10.014-22.324-22.323-22.324zm0 29.615c-4.021 0-7.292-3.271-7.292-7.291s3.271-7.292 7.292-7.292c4.02 0 7.291 3.272 7.291 7.292s-3.27 7.291-7.291 7.291z"/><path d="m310.061 282.535h-8.918v-8.918c0-4.143-3.358-7.5-7.5-7.5s-7.5 3.357-7.5 7.5v8.918h-8.918c-4.142 0-7.5 3.357-7.5 7.5s3.358 7.5 7.5 7.5h8.918v8.918c0 4.143 3.358 7.5 7.5 7.5s7.5-3.357 7.5-7.5v-8.918h8.918c4.142 0 7.5-3.357 7.5-7.5s-3.358-7.5-7.5-7.5z"/></g></g></svg>