<?xml version="1.0" encoding="iso-8859-1"?>
<!-- Generator: Adobe Illustrator 19.0.0, SVG Export Plug-In . SVG Version: 6.00 Build 0)  -->
<svg version="1.1" id="Capa_1" xmlns="http://www.w3.org/2000/svg" xmlns:xlink="http://www.w3.org/1999/xlink" x="0px" y="0px"
	 viewBox="0 0 512 512" style="enable-background:new 0 0 512 512;" xml:space="preserve">
<g>
	<rect x="108.574" y="423.176" style="fill:#666666;" width="58.62" height="81.22"/>
	<rect x="344.804" y="423.176" style="fill:#666666;" width="58.62" height="81.22"/>
</g>
<g>
	<rect x="108.574" y="423.176" style="fill:#333333;" width="58.62" height="51.704"/>
	<rect x="344.804" y="423.176" style="fill:#333333;" width="58.62" height="51.704"/>
</g>
<path style="fill:#428FCE;" d="M470.268,138.666H288.681v124.705h181.588c12.819,0,23.212-10.392,23.212-23.212v-78.281
	C493.481,149.059,483.089,138.666,470.268,138.666z"/>
<path style="fill:#3180B5;" d="M41.732,138.666h182.063v124.705H41.732c-12.819,0-23.212-10.392-23.212-23.212v-78.281
	C18.519,149.059,28.911,138.666,41.732,138.666z"/>
<path style="fill:#428FCE;" d="M399.548,7.604H112.452c-26.56,0-48.091,21.531-48.091,48.091v341.989
	c0,26.56,21.531,48.091,48.091,48.091h287.095c26.56,0,48.091-21.531,48.091-48.091V55.695
	C447.639,29.135,426.108,7.604,399.548,7.604z"/>
<path style="fill:#3180B5;" d="M102.147,397.684V55.695c0-26.56,21.531-48.091,48.091-48.091h-37.786
	c-26.56,0-48.091,21.531-48.091,48.091v341.989c0,26.56,21.531,48.091,48.091,48.091h37.786
	C123.678,445.776,102.147,424.244,102.147,397.684z"/>
<g>
	<circle style="fill:#C3F4EE;" cx="118.368" cy="389.759" r="27.881"/>
	<circle style="fill:#C3F4EE;" cx="393.632" cy="389.759" r="27.881"/>
</g>
<g>
	<path style="fill:#A5E5DF;" d="M124.962,389.758c0,11.619-7.117,21.585-17.236,25.772c-10.118-4.177-17.236-14.154-17.236-25.772
		c0-11.629,7.117-21.595,17.236-25.772C117.845,368.162,124.962,378.129,124.962,389.758z"/>
	<path style="fill:#A5E5DF;" d="M400.226,389.758c0,11.619-7.117,21.585-17.236,25.772c-10.118-4.177-17.236-14.154-17.236-25.772
		c0-11.629,7.117-21.595,17.236-25.772C393.109,368.162,400.226,378.129,400.226,389.758z"/>
	<path style="fill:#A5E5DF;" d="M447.634,74.376v227.085c0,14.883-12.065,26.959-26.948,26.959H91.312
		c-14.883,0-26.948-12.075-26.948-26.959V74.376c0-14.894,12.065-26.959,26.948-26.959h329.373
		C435.569,47.417,447.634,59.482,447.634,74.376z"/>
</g>
<path style="fill:#82BFB8;" d="M102.86,47.417c-0.466,2.687-0.71,5.455-0.71,8.283v272.719H91.312
	c-14.883,0-26.948-12.075-26.948-26.959V74.376c0-14.894,12.065-26.959,26.948-26.959H102.86z"/>
<path style="fill:#C3F4EE;" d="M409.138,47.417c0.466,2.687,0.71,5.455,0.71,8.283v272.719h10.838
	c14.883,0,26.948-12.075,26.948-26.959V74.376c0-14.894-12.065-26.959-26.948-26.959H409.138z"/>
<path style="fill:#E6E6E6;" d="M447.634,74.376v44.012H64.364V74.376c0-14.894,12.065-26.959,26.948-26.959h329.373
	C435.569,47.417,447.634,59.482,447.634,74.376z"/>
<path style="fill:#B3B3B3;" d="M102.86,47.417c-0.466,2.687-0.71,5.455-0.71,8.283v62.687H64.364V74.376
	c0-14.894,12.065-26.959,26.948-26.959C91.312,47.417,102.86,47.417,102.86,47.417z"/>
<path style="fill:#F2F2F2;" d="M447.634,74.376v44.012h-37.787V55.701c0-2.829-0.243-5.597-0.71-8.283h11.548
	C435.569,47.417,447.634,59.482,447.634,74.376z"/>
<path style="fill:#666666;" d="M306.477,364.914H203.971c-16.488,0-29.855,13.367-29.855,29.855v13.87
	c0,20.509-16.626,37.136-37.136,37.136h-24.526h287.095h-26.08c-20.509,0-37.136-16.626-37.136-37.136v-13.87
	C336.332,378.281,322.966,364.914,306.477,364.914z"/>
<path d="M399.548,0H112.452c-30.71,0-55.695,24.986-55.695,55.695v308.173c0,4.199,3.405,7.604,7.604,7.604
	c4.199,0,7.604-3.405,7.604-7.604v-33.791c5.526,3.748,12.188,5.941,19.353,5.941h329.365c7.165,0,13.827-2.193,19.353-5.941v67.606
	c0,22.325-18.163,40.488-40.488,40.488h-26.08c-16.284,0-29.532-13.248-29.532-29.532v-13.871c0-20.655-16.805-37.459-37.459-37.459
	H203.97c-20.655,0-37.459,16.804-37.459,37.459v13.871c0,16.284-13.247,29.532-29.531,29.532h-24.526
	c-22.325,0-40.488-18.163-40.488-40.488v-8.467c0-4.199-3.405-7.604-7.604-7.604s-7.604,3.405-7.604,7.604v8.467
	c0,30.711,24.986,55.695,55.695,55.695h287.094c30.711,0,55.695-24.986,55.695-55.695V55.695C455.243,24.986,430.257,0,399.548,0z
	 M170.561,438.172c6.942-7.885,11.158-18.225,11.158-29.532v-13.871c0-12.27,9.982-22.251,22.251-22.251h102.506
	c12.27,0,22.251,9.983,22.251,22.251v13.871c0,11.307,4.216,21.647,11.158,29.532H170.561z M112.452,15.208h287.094
	c18.547,0,34.209,12.539,38.983,29.582c-5.213-3.157-11.322-4.977-17.848-4.977H91.317c-6.526,0-12.636,1.82-17.848,4.977
	C78.244,27.747,93.907,15.208,112.452,15.208z M420.683,320.811H91.317c-10.671,0-19.353-8.682-19.353-19.353V125.992h257.386
	c4.199,0,7.604-3.405,7.604-7.604s-3.405-7.604-7.604-7.604H71.965v-36.41c0-10.671,8.682-19.353,19.353-19.353h329.365
	c10.671,0,19.353,8.682,19.353,19.353v36.41h-80.266c-4.199,0-7.604,3.405-7.604,7.604s3.405,7.604,7.604,7.604h80.266v175.467
	C440.035,312.129,431.353,320.811,420.683,320.811z"/>
<path d="M104.814,422.554c4.302,1.784,8.863,2.689,13.559,2.689c19.567,0,35.485-15.919,35.485-35.485s-15.919-35.485-35.485-35.485
	c-4.697,0-9.26,0.905-13.547,2.684c-13.327,5.501-21.938,18.376-21.938,32.801C82.887,404.182,91.499,417.057,104.814,422.554z
	 M110.642,371.009c2.443-1.014,5.045-1.528,7.731-1.528c11.181,0,20.277,9.096,20.277,20.277s-9.096,20.277-20.277,20.277
	c-2.685,0-5.286-0.514-7.744-1.534c-7.613-3.143-12.533-10.501-12.533-18.743C98.095,381.514,103.014,374.157,110.642,371.009z"/>
<path d="M393.636,425.243c19.567,0,35.485-15.919,35.485-35.485s-15.919-35.485-35.485-35.485c-4.697,0-9.26,0.905-13.547,2.684
	c-13.327,5.501-21.938,18.376-21.938,32.801c0,14.424,8.612,27.299,21.926,32.796C384.378,424.339,388.941,425.243,393.636,425.243z
	 M373.359,389.758c0-8.244,4.919-15.601,12.547-18.749c2.443-1.014,5.045-1.528,7.731-1.528c11.181,0,20.277,9.096,20.277,20.277
	s-9.096,20.277-20.277,20.277c-2.685,0-5.286-0.514-7.744-1.534C378.279,405.358,373.359,398.001,373.359,389.758z"/>
<path d="M167.195,456.632c-4.199,0-7.604,3.405-7.604,7.604v32.556h-43.413v-32.556c0-4.199-3.405-7.604-7.604-7.604
	c-4.199,0-7.604,3.405-7.604,7.604v40.16c0,4.199,3.405,7.604,7.604,7.604h58.62c4.199,0,7.604-3.405,7.604-7.604v-40.16
	C174.799,460.037,171.395,456.632,167.195,456.632z"/>
<path d="M403.425,456.632c-4.199,0-7.604,3.405-7.604,7.604v32.556h-43.413v-32.556c0-4.199-3.405-7.604-7.604-7.604
	s-7.604,3.405-7.604,7.604v40.16c0,4.199,3.405,7.604,7.604,7.604h58.62c4.199,0,7.604-3.405,7.604-7.604v-40.16
	C411.029,460.037,407.625,456.632,403.425,456.632z"/>
<path d="M470.269,131.063c-4.199,0-7.604,3.405-7.604,7.604c0,4.199,3.405,7.604,7.604,7.604c8.607,0,15.608,7.002,15.608,15.608
	v78.281c0,8.607-7.002,15.608-15.608,15.608c-4.199,0-7.604,3.405-7.604,7.604c0,4.199,3.405,7.604,7.604,7.604
	c16.992,0,30.816-13.824,30.816-30.816v-78.281C501.085,144.886,487.261,131.063,470.269,131.063z"/>
<path d="M41.731,146.271c4.199,0,7.604-3.405,7.604-7.604c0-4.199-3.405-7.604-7.604-7.604c-16.992,0-30.816,13.824-30.816,30.816
	v78.281c0,16.992,13.824,30.816,30.816,30.816c4.199,0,7.604-3.405,7.604-7.604c0-4.199-3.405-7.604-7.604-7.604
	c-8.607,0-15.608-7.002-15.608-15.608v-78.281C26.123,153.272,33.125,146.271,41.731,146.271z"/>
<g>
</g>
<g>
</g>
<g>
</g>
<g>
</g>
<g>
</g>
<g>
</g>
<g>
</g>
<g>
</g>
<g>
</g>
<g>
</g>
<g>
</g>
<g>
</g>
<g>
</g>
<g>
</g>
<g>
</g>
</svg>
