<svg id="Capa_1" enable-background="new 0 0 512 512" height="512" viewBox="0 0 512 512" width="512" xmlns="http://www.w3.org/2000/svg"><g><g><path d="m295.396 329.222 57.545 17.477c46.819 14.219 78.827 57.392 78.827 106.323v51.478h-351.536v-51.479c0-48.931 32.008-92.103 78.827-106.323l57.545-17.477h78.792z" fill="#5e54ac"/></g><g><path d="m216.604 329.222-34.187 10.383c-.017 21.214 6.909 39.226 14.006 52.11 6.487 11.774 22.465 14.016 31.97 4.51l27.607-27.606v-39.396h-39.396z" fill="#d8e2f1"/></g><g><path d="m295.396 329.222 34.187 10.383c.017 21.214-6.909 39.226-14.006 52.11-6.487 11.774-22.465 14.016-31.97 4.51l-27.607-27.606v-39.396h39.396z" fill="#d8e2f1"/></g><g><path d="m376.152 356.772c.021 1.163.057 2.323.057 3.491 0 57.773-25.874 109.496-66.658 144.237h122.217v-51.479c0-40.33-21.756-76.73-55.616-96.249z" fill="#524798"/></g><g><path d="m295.396 329.222v-40.406h-78.793v40.406c0 21.758 17.638 39.396 39.396 39.396 21.759.001 39.397-17.638 39.397-39.396z" fill="#ce9875"/></g><g><path d="m216.604 313.57c12.274 4.574 25.548 7.081 39.396 7.081 13.849 0 27.122-2.506 39.396-7.081v-24.754h-78.793v24.754z" fill="#c6865c"/></g><g><path d="m346.915 130.74v76.772c0 50.211-40.704 90.915-90.915 90.915s-90.915-40.704-90.915-90.915v-76.772z" fill="#ce9875"/></g><g><path d="m325.701 130.74v117.179c0 7.112-.818 14.034-2.363 20.676 14.649-16.14 23.577-37.568 23.577-61.082v-76.773z" fill="#c6865c"/></g><g><path d="m373.428 113.062c4.995-4.262 8.166-10.598 8.166-17.678 0-9.473-5.673-17.617-13.804-21.234 1.453-2.613 2.287-5.617 2.287-8.819 0-10.042-8.141-18.183-18.183-18.183-.3 0-.592.031-.888.045.574-2.022.888-4.153.888-6.358 0-12.832-10.402-23.234-23.234-23.234-5.729 0-10.97 2.078-15.021 5.515-3.154-9.088-11.787-15.616-21.95-15.616-7.172 0-13.583 3.251-17.845 8.359-4.261-5.108-10.672-8.359-17.844-8.359s-13.583 3.251-17.845 8.359c-4.262-5.107-10.673-8.359-17.845-8.359-10.163 0-18.796 6.528-21.95 15.617-4.051-3.437-9.292-5.515-15.021-5.515-12.832 0-23.234 10.402-23.234 23.234 0 2.206.314 4.337.888 6.358-.296-.014-.588-.045-.888-.045-10.042 0-18.183 8.141-18.183 18.183 0 3.202.834 6.206 2.287 8.819-8.131 3.617-13.804 11.76-13.804 21.234 0 7.08 3.171 13.416 8.166 17.678-4.995 4.262-8.166 10.598-8.166 17.678 0 12.832 10.402 23.234 23.234 23.234 4.164 0 8.067-1.104 11.445-3.024v55.553l23.577-52.528c8.478 0 15.892-4.543 19.95-11.325 3.334 3.837 8.237 6.274 13.719 6.274s10.385-2.437 13.719-6.274c4.057 6.782 11.472 11.325 19.95 11.325s15.892-4.543 19.95-11.325c3.334 3.837 8.237 6.274 13.719 6.274s10.385-2.437 13.719-6.274c4.057 6.782 11.472 11.325 19.95 11.325l23.577 52.528v-55.554c3.379 1.92 7.281 3.024 11.445 3.024 12.832 0 23.234-10.402 23.234-23.234.001-7.08-3.17-13.416-8.165-17.678z" fill="#e7ecf6"/></g><g><path d="m373.428 113.062c4.995-4.262 8.166-10.598 8.166-17.678 0-9.473-5.673-17.617-13.804-21.234 1.453-2.613 2.287-5.617 2.287-8.819 0-10.042-8.141-18.183-18.183-18.183-.3 0-.592.031-.888.045.574-2.022.888-4.153.888-6.358 0-12.832-10.402-23.234-23.234-23.234-1.038 0-2.052.091-3.054.223 10.171 17.229 16.015 37.317 16.015 58.772 0 28.758-10.489 55.063-27.844 75.31 2.918 1.321 6.151 2.067 9.562 2.067l23.577 52.528v-55.551c3.379 1.92 7.281 3.024 11.445 3.024 12.832 0 23.234-10.402 23.234-23.234-.001-7.08-3.172-13.416-8.167-17.678z" fill="#d8e2f1"/></g><g><path d="m363.077 206.502h-16.163v-54.549h16.163c11.158 0 20.203 9.045 20.203 20.203v14.142c0 11.159-9.045 20.204-20.203 20.204z" fill="#ce9875"/></g><g><path d="m148.923 206.502h16.163v-54.549h-16.163c-11.158 0-20.203 9.045-20.203 20.203v14.142c0 11.159 9.045 20.204 20.203 20.204z" fill="#ce9875"/></g><g><circle cx="225.839" cy="197.809" fill="#9dc6fb" r="17.173"/></g><g><circle cx="286.161" cy="197.809" fill="#9dc6fb" r="17.173"/></g><g><path d="m431.77 480.84c-4.142 0-7.5 3.357-7.5 7.5v8.66h-59.754v-24.825c0-4.143-3.358-7.5-7.5-7.5s-7.5 3.357-7.5 7.5v24.825h-188.042v-24.825c0-4.143-3.358-7.5-7.5-7.5s-7.5 3.357-7.5 7.5v24.825h-58.744v-8.66c0-4.143-3.358-7.5-7.5-7.5s-7.5 3.357-7.5 7.5v16.16c0 4.143 3.358 7.5 7.5 7.5h351.54c4.142 0 7.5-3.357 7.5-7.5v-16.16c0-4.143-3.358-7.5-7.5-7.5z"/><path d="m415.937 382.377c-15.264-20.587-36.294-35.405-60.817-42.853l-52.224-15.865v-29.642c28.869-15.713 49.038-45.46 51.299-80.015h8.882c15.275 0 27.703-12.428 27.703-27.703v-14.143c0-8.325-3.697-15.799-9.529-20.881 4.955-5.507 7.842-12.74 7.842-20.535 0-6.396-1.986-12.55-5.596-17.679 3.61-5.128 5.596-11.282 5.596-17.678 0-9.718-4.602-18.727-12.137-24.462.411-1.832.621-3.707.621-5.59 0-11.554-7.668-21.351-18.183-24.566-.037-16.916-13.81-30.664-30.733-30.664-4.204 0-8.337.867-12.149 2.509-5.683-7.778-14.841-12.61-24.823-12.61-6.481 0-12.691 2.024-17.843 5.705-5.157-3.681-11.367-5.705-17.846-5.705s-12.689 2.024-17.846 5.705c-5.152-3.681-11.362-5.705-17.843-5.705-9.982 0-19.14 4.832-24.823 12.61-3.812-1.642-7.945-2.509-12.149-2.509-16.924 0-30.696 13.748-30.733 30.664-10.515 3.216-18.183 13.013-18.183 24.566 0 1.883.21 3.758.621 5.59-7.535 5.735-12.137 14.744-12.137 24.462 0 6.396 1.986 12.55 5.596 17.678-3.61 5.129-5.596 11.283-5.596 17.679 0 7.795 2.887 15.028 7.842 20.535-5.832 5.083-9.529 12.556-9.529 20.881v14.143c0 15.275 12.428 27.703 27.703 27.703h8.882c2.261 34.555 22.43 64.302 51.299 80.015v29.642l-52.223 15.865c-24.523 7.448-45.553 22.267-60.817 42.854-15.266 20.586-23.334 45.014-23.334 70.642v.12c0 4.143 3.358 7.5 7.5 7.5s7.5-3.357 7.5-7.5v-.12c0-45.946 29.541-85.789 73.51-99.144l14.161-4.302c1.483 15.5 6.399 31.14 14.453 45.76 4.235 7.688 11.652 12.805 20.348 14.039 1.333.188 2.662.282 3.98.282 7.296 0 14.246-2.857 19.515-8.127l22.303-22.304 22.303 22.305c5.27 5.269 12.219 8.126 19.515 8.126 1.318 0 2.648-.094 3.98-.283 8.696-1.233 16.112-6.351 20.348-14.038 8.054-14.62 12.97-30.26 14.453-45.759l14.161 4.302c43.969 13.354 73.51 53.196 73.51 99.143v.12c0 4.143 3.358 7.5 7.5 7.5s7.5-3.357 7.5-7.5v-.12c0-25.628-8.068-50.056-23.333-70.643zm-40.157-196.078c0 7.005-5.699 12.703-12.703 12.703h-8.663v-39.549h8.663c7.004 0 12.703 5.698 12.703 12.703zm-237.874-55.559c0-4.606 2.017-8.972 5.534-11.977 1.668-1.425 2.628-3.509 2.628-5.702 0-2.194-.96-4.277-2.628-5.702-3.517-3.005-5.534-7.369-5.534-11.976 0-6.208 3.673-11.853 9.356-14.381 1.923-.854 3.399-2.479 4.066-4.476s.464-4.182-.558-6.021c-.895-1.608-1.348-3.35-1.348-5.174 0-5.891 4.792-10.684 10.606-10.685l.156.009c.179.012.356.021.534.028 2.405.071 4.695-.978 6.177-2.867 1.481-1.89 1.968-4.374 1.311-6.683-.399-1.401-.602-2.848-.602-4.3 0-8.676 7.058-15.733 15.733-15.733 3.717 0 7.33 1.327 10.171 3.736 1.887 1.599 4.441 2.168 6.829 1.514 2.386-.652 4.297-2.44 5.108-4.778 2.194-6.323 8.167-10.572 14.866-10.572 4.679 0 9.082 2.062 12.079 5.657 1.424 1.708 3.533 2.696 5.756 2.697h.004c2.222 0 4.331-.985 5.755-2.691 3.008-3.599 7.416-5.663 12.095-5.663s9.087 2.064 12.094 5.663c1.425 1.706 3.533 2.691 5.755 2.691h.004c2.224-.001 4.333-.989 5.756-2.697 2.998-3.595 7.401-5.657 12.08-5.657 6.699 0 12.672 4.249 14.864 10.573.811 2.338 2.722 4.126 5.108 4.778 2.388.654 4.941.086 6.829-1.514 2.842-2.409 6.454-3.736 10.171-3.736 8.675 0 15.733 7.058 15.733 15.733 0 1.452-.203 2.898-.602 4.3-.658 2.309-.17 4.793 1.311 6.683 1.481 1.889 3.761 2.934 6.177 2.867.178-.007.355-.017.534-.028l.08-.008c5.891 0 10.683 4.793 10.683 10.684 0 1.824-.454 3.565-1.348 5.174-1.022 1.84-1.226 4.024-.558 6.021.667 1.996 2.143 3.621 4.066 4.476 5.684 2.528 9.356 8.173 9.356 14.381 0 4.606-2.017 8.971-5.534 11.976-1.668 1.425-2.628 3.508-2.628 5.702 0 2.193.96 4.277 2.628 5.702 3.517 3.005 5.534 7.37 5.534 11.977 0 5.88-3.206 11.135-8.292 13.848-.897-.088-1.805-.135-2.725-.135h-16.163c-4.142 0-7.5 3.357-7.5 7.5v19.523l-9.234-20.574c-1.209-2.694-3.888-4.429-6.842-4.429-5.586 0-10.638-2.869-13.514-7.676-1.234-2.062-3.382-3.409-5.776-3.62-2.388-.213-4.744.737-6.321 2.552-2.039 2.348-4.976 3.693-8.058 3.693-3.081 0-6.018-1.347-8.058-3.693-1.577-1.815-3.931-2.767-6.321-2.552-2.395.211-4.542 1.558-5.776 3.62-2.875 4.807-7.927 7.676-13.513 7.676s-10.638-2.869-13.513-7.676c-1.234-2.062-3.382-3.409-5.776-3.62-2.391-.213-4.745.737-6.321 2.552-2.04 2.347-4.977 3.693-8.058 3.693-3.082 0-6.019-1.346-8.058-3.693-1.577-1.815-3.932-2.767-6.321-2.552-2.395.211-4.542 1.558-5.776 3.62-2.875 4.807-7.927 7.676-13.514 7.676-2.954 0-5.633 1.734-6.842 4.429l-9.234 20.574v-19.523c0-4.143-3.358-7.5-7.5-7.5h-16.163c-.919 0-1.828.047-2.725.135-5.087-2.714-8.293-7.968-8.293-13.849zm-1.686 55.559v-14.143c0-7.005 5.699-12.703 12.703-12.703h8.663v39.549h-8.663c-7.005 0-12.703-5.698-12.703-12.703zm36.38 21.777 21.107-47.025c6.006-1.013 11.593-3.804 16.015-7.949 3.81 2.154 8.144 3.321 12.61 3.321s8.8-1.167 12.609-3.321c5.64 5.287 13.178 8.372 21.06 8.372s15.42-3.085 21.06-8.372c3.81 2.154 8.144 3.321 12.609 3.321s8.8-1.167 12.61-3.321c4.421 4.146 10.009 6.937 16.015 7.949l21.107 47.025c-.306 45.735-37.594 82.851-83.4 82.851s-83.096-37.116-83.402-82.851zm83.4 97.851c11.159 0 21.889-1.871 31.896-5.309v28.604c0 17.587-14.309 31.896-31.896 31.896s-31.896-14.309-31.896-31.896v-28.604c10.007 3.438 20.737 5.309 31.896 5.309zm-32.91 84.995c-2.854 2.854-6.783 4.171-10.782 3.6-3.982-.565-7.378-2.907-9.316-6.426-7.717-14.008-12.042-28.442-12.906-42.983l20.055-6.093c3.43 16.07 15.115 29.11 30.388 34.464zm85.918-2.826c-1.938 3.519-5.334 5.86-9.317 6.426-3.992.568-7.926-.743-10.782-3.599l-17.438-17.439c15.273-5.354 26.958-18.394 30.388-34.464l20.055 6.093c-.864 14.541-5.189 28.975-12.906 42.983z"/><path d="m262.657 205.31c3.182 9.948 12.514 17.172 23.504 17.172 13.604 0 24.673-11.067 24.673-24.672s-11.068-24.673-24.673-24.673c-10.99 0-20.322 7.225-23.504 17.173h-13.314c-3.182-9.948-12.514-17.173-23.504-17.173-13.604 0-24.673 11.068-24.673 24.673s11.068 24.672 24.673 24.672c10.99 0 20.322-7.224 23.504-17.172zm23.504-17.173c5.333 0 9.673 4.339 9.673 9.673 0 5.333-4.339 9.672-9.673 9.672s-9.673-4.339-9.673-9.672c0-5.334 4.339-9.673 9.673-9.673zm-60.322 19.344c-5.333 0-9.673-4.339-9.673-9.672 0-5.334 4.339-9.673 9.673-9.673s9.673 4.339 9.673 9.673-4.339 9.672-9.673 9.672z"/><path d="m291.995 236.783c-3.12-2.725-7.858-2.406-10.583.714-2.726 3.119-2.406 7.857.713 10.583 2.566 2.241 4.305 5.322 4.896 8.676.642 3.639 3.806 6.198 7.377 6.198.432 0 .871-.037 1.312-.115 4.079-.72 6.803-4.609 6.083-8.688-1.183-6.713-4.663-12.881-9.798-17.368z"/><path d="m220.005 236.783c-5.135 4.486-8.615 10.654-9.799 17.367-.72 4.079 2.004 7.969 6.083 8.688.44.078.879.115 1.312.115 3.571 0 6.735-2.56 7.377-6.198.592-3.354 2.331-6.435 4.896-8.676 3.119-2.726 3.439-7.464.713-10.583s-7.464-3.436-10.582-.713z"/></g></g></svg>